
  <svg
    width="1000"
    height="1000"
    viewBox="0 0 1000 1000"
    xmlns="http://www.w3.org/2000/svg"
  >
    <defs>
      
      
      
      
      
      
      
      <clipPath id="shape">
        <path fill="currentColor" d="M842,640.5Q724,781,566.5,839.5Q409,898,250,797.5Q91,697,129.5,518.5Q168,340,279,180Q390,20,558.5,117.5Q727,215,843.5,357.5Q960,500,842,640.5Z"></path>
      </clipPath>
    </defs>
  
    

    <g  clip-path="url(#shape)">
      <path fill="#8600e6" d="M842,640.5Q724,781,566.5,839.5Q409,898,250,797.5Q91,697,129.5,518.5Q168,340,279,180Q390,20,558.5,117.5Q727,215,843.5,357.5Q960,500,842,640.5Z" />
    </g>

    
  
  </svg>