<svg id="visual" viewBox="0 0 900 600" width="900" height="600" xmlns="http://www.w3.org/2000/svg" xmlns:xlink="http://www.w3.org/1999/xlink" version="1.1"><rect x="0" y="0" width="900" height="600" fill="#8600e6"></rect><path d="M0 507L30 490.7C60 474.3 120 441.7 180 428.5C240 415.3 300 421.7 360 429.7C420 437.7 480 447.3 540 456.8C600 466.3 660 475.7 720 469C780 462.3 840 439.7 870 428.3L900 417L900 601L870 601C840 601 780 601 720 601C660 601 600 601 540 601C480 601 420 601 360 601C300 601 240 601 180 601C120 601 60 601 30 601L0 601Z" fill="#ffffff" stroke-linecap="round" stroke-linejoin="miter"></path></svg>