<svg version="1.2" xmlns="http://www.w3.org/2000/svg" viewBox="0 0 656 483" width="656" height="483">
	<title>home_img-svg</title>
	<style>
		.s0 { fill: #ffb6b6 } 
		.s1 { fill: #e6e6e6 } 
		.s2 { fill: #2f2e41 } 
		.s3 { fill: #a0616a } 
		.s4 { opacity: .1;fill: #000000 } 
		.s5 { fill: #ffffff } 
		.s6 { fill: #3f3d56 } 
		.s7 { fill: #270042 } 
	</style>
	<g id="Layer">
	</g>
	<g id="Layer">
		<path id="Layer" class="s0" d="m253.6 250c-2.7-3.2-4.4-6.7-5.1-9.9l-6-6.2-43.9-44.2-42.9-79.8 6.9-8.5c0 0 8.8-3.2 16.3 2.9 7.5 6.2 32.9 63.4 32.9 63.4l45.9 57.5 3.6 4.1c3.1 1.2 6.2 3.5 8.9 6.7 6.1 7.2 7.3 16.1 2.7 20-4.6 3.9-13.2 1.2-19.3-6z"/>
		<path id="Layer" class="s1" d="m186.3 115l11.5 16.8 16.5 24.4-29.6 10.3-26.2-44.9 27.8-6.6z"/>
	</g>
	<path id="Layer" class="s2" d="m464.4 301h-52.3v-17.8c0-28.5 23.2-51.7 51.8-51.7h0.5c0 0 0 69.5 0 69.5z"/>
	<path id="Layer" class="s3" d="m423.8 291.7l8.6-28.4 22.3-1.1 9.7 38.8-40.6-9.3z"/>
	<path id="Layer" class="s4" d="m423.8 291.7l8.6-28.4 22.3-1.1 9.7 38.8-40.6-9.3z"/>
	<path id="Layer" class="s3" d="m444 279.9c-14.5 0-26.1-11.7-26.1-26.1 0-14.5 11.6-26.2 26.1-26.2 14.5 0 26.2 11.7 26.2 26.2 0 14.4-11.7 26.1-26.2 26.1z"/>
	<path id="Layer" class="s2" d="m463.6 399l11.8 2.5 28.4-16.7c0 0 14.8-3.7 21.6 12.4 6.8 16-0.3 14.5-38.6 44.8-38.3 30.2-95.1 20.3-95.1 20.3 0 0-42.7-24-59.3-33.9-16.7-9.9-16.1-27.8-1.9-37.1 14.2-9.2 51.2 15.6 51.2 15.6l6.9-6.9c0 0 75-1 75-1z"/>
	<path id="Layer" class="s2" d="m390.1 407.7l29.7 12.9-11.1 26.6-43.9-10.5"/>
	<path id="Layer" class="s2" d="m485.9 439.2l-44.5 19.1-15.5-32.1 40-18.5"/>
	<path id="Layer" class="s1" d="m425.9 286.5l35 1 27.7 19.2-10.3 29.6-2.6 50.1 2.6 13.4-30.4 9.4-59.3-9.2 11.1-28.5-12.4-67.9 38.6-17.1z"/>
	<path id="Layer" class="s3" d="m416.1 423.1l19.1 5.6-9.3 22.7-25.3-9.8 15.5-18.5z"/>
	<path id="Layer" class="s3" d="m442.7 423.1l3 26.6-26.5 3.1v-17.9l23.5-11.8z"/>
	<path id="Layer" class="s2" d="m421.6 451.5l51.9-10.5c0 0 9.3 3.1 12.4 5 3.1 1.8-5.6 16-21 27.2-15.5 11.1-56.2-16.1-56.2-16.1z"/>
	<path id="Layer" class="s2" d="m412.4 441l9.2-9.2 3.5 26.5c0 0-49.8 20.4-69.6 15.5-19.7-5 1.3-37.1 1.3-37.1 0 0 55.6 4.3 55.6 4.3z"/>
	<g id="Layer">
		<path id="uuid-f90347b5-01d3-4a65-adde-e3fff0e81842-147" class="s3" d="m487.7 214.4c-5.8-5.4-7.7-12.7-4.3-16.4 3.4-3.6 10.8-2.3 16.6 3.1 2.3 2.1 4.1 4.7 5.2 7.6l24.2 23-11 11.1-22.7-23.8c-3-0.9-5.8-2.5-8-4.6z"/>
		<path id="Layer" class="s1" d="m481.1 285.5l43.8-21.4-22.7-38.9 7.1-14.4c0 0 55.1 30.7 49.6 53.1-5.4 22.3-60.1 63.4-77.6 56.8-5.3-2-8.3-5.5-10.1-9.5-4.1-9.8 0.4-21.1 9.9-25.7z"/>
	</g>
	<path id="Layer" class="s2" d="m393.9 274.9c1.4-4 4-7.5 5.2-11.6 1.5-5.5 4.9 6.6 5.2 0.9 0.6-10.7 17-38.3 26.3-43.6 9.4-5.3 14.7-3.7 24.2 1.3 0 0 4.7 0.3 10.4 3.1 5.8 2.9 11 7.4 13.2 13.4 1.8 4.8 1.6 10 2.2 15.1 1.6 14.1 9.5 27.5 7.8 41.5-0.5 4.4-2.2 9-5.8 11.5-3.6 2.6-9.4 2.3-11.7-1.4-0.8-1.3-1.2-2.8-1.9-4.1-0.7-1.4-1.9-2.6-3.4-2.6-2.3 0.1-3.4 3.1-2.5 5.2 0.9 2.1 3 3.3 4.9 4.5-4.7 2.1-10.5 1.4-14.6-1.7-4.1-3.1-6.3-8.5-5.6-13.6 1.1-7.2 11.6-5.7 12.8-12.9 0.9-5.2 4-13.9 3.2-19.1-0.9-5.2-5 1.1-0.7-1.9-4.7 2.3-15-13.5-20-15.2-5-1.8-9.2-5.6-11.5-10.4-5.3 7.7-9.9 5.6-11.8 14.7-1.9 9.2 1.2 37.4 9 42.5-3.1 2.1-7-2.2-8.4 1.2-0.9 2-1.4 4.2-2.8 5.8-2.6 3.2-7.5 3.4-11.4 2-4.8-1.6-8.9-5.2-11.2-9.7-2.3-4.6-2.6-10-1.1-14.9z"/>
	<g id="Layer">
		<path id="uuid-bae71f6d-0a8e-4bcd-ae8c-7ec40a5eb615-148" class="s3" d="m326.6 278.1l8 31.9-15.3 3.3-6.4-32.7c-1.9-2.5-3.2-5.4-3.7-8.5-1.4-7.8 1.4-14.8 6.4-15.7 4.9-0.9 10 4.7 11.4 12.4 0.7 3.1 0.5 6.3-0.4 9.3z"/>
		<path id="Layer" class="s1" d="m417.6 306.8c2.4 3.6 3.8 8.1 2.6 13.7-3.8 18.2-67.7 42.4-89.6 35-21.8-7.3-18.2-70.3-18.2-70.3l16 1.7 20.7 40 41.5-25.5c9.1-5.6 21-3.3 27 5.4z"/>
	</g>
	<path id="Layer" class="s5" d="m617.1 349l-148.7 47v-181l148.7-47v181z"/>
	<path id="Layer" fill-rule="evenodd" class="s6" d="m467.4 397.4v-183.1l150.7-47.7v183.1zm2-181.6v178.9l146.6-46.3v-179z"/>
	<path id="Layer" class="s5" d="m253 389.2v-145.2l119.2 37.7v145.1l-119.2-37.6z"/>
	<path id="Layer" fill-rule="evenodd" class="s6" d="m373.2 428.2l-1.3-0.4-119.9-37.9v-147.3l1.3 0.4 119.9 37.9zm-119.2-39.7l117.2 37v-143.1l-117.2-37z"/>
	<path id="Layer" class="s7" d="m504.5 226.2c-1.7 8.8 1.4 18.5 8 24.7 6.5 6.2 16.3 8.7 25 6.6 8.4-2.1 16.1-10.9 12.6-18.7-2.5-5.6-10.1-7.7-15.6-5-5.5 2.7-8.6 9.1-8.2 15.2 0.3 6.1 3.5 11.8 7.8 16.1 11.3 11.2 29.4 14.1 39.4 26.6 8.6 10.8 8.4 27.8-0.6 38.4-9.1 10.6-25.8 13.5-37.9 6.7-5-2.9-9.3-7.4-10.5-13-1.3-5.6 1.2-12.2 6.5-14.5 9.8-4.4 19.8 7.4 30.6 7.6 6.2 0.1 12.2-4.2 14.1-10.1 1.9-5.8-0.4-12.9-5.4-16.4"/>
	<path id="Layer" class="s7" d="m295.3 352.8c1.9 5.6-2 12.5-7.9 13.6-5.8 1.1-12-3.7-12.4-9.6-0.3-5.9 5.4-11.5 11.3-11 9.5 0.7 15.1 13.8 24.6 13.2 6.5-0.5 10.7-7.1 13.1-13.2 2.7-7 4.8-14.3 6-21.7 1-6.2 1.5-12.6 0-18.7-1.5-6.1-5.2-11.9-10.7-14.7-8.5-4.3-20.2-0.1-24.2 8.5-4.1 8.6-0.2 20 8.2 24.7 10.4 5.8 24.7 1.6 34.2 8.8 7.6 5.8 8.9 16.6 9.6 26.1 0.4 6.1 0.8 12.2-0.4 18.2-1.3 6-4.4 11.8-9.7 14.9-4 2.3-9.3 2.8-13.1 0.2-3.8-2.6-5.3-8.5-2.3-12 2.4-2.9 6.9-3.4 10.4-2.1 3.6 1.2 6.5 3.8 9.3 6.3"/>
	<path id="Layer" class="s0" d="m198 57.6l-8.3 31.7-31.8-6.2c0 0 12.5-22.9 9.4-33.3z"/>
	<g id="Layer">
		<path id="Layer" class="s0" d="m164.5 470.7v-73.7h28.2l-9.1 73.7h-19.1z"/>
		<path id="Layer" class="s2" d="m230 470.3c0.6 1 0.9 4.2 0.9 5.4 0 3.6-2.9 6.5-6.5 6.5h-59.2c-2.5 0-4.4-2-4.4-4.4v-2.5c0 0-3-7.4 3.1-16.5 0 0 7.5 7.1 18.7-4.1l3.3-6 23.9 17.5 13.2 1.6c2.9 0.4 5.5 0 7 2.5q0 0 0 0z"/>
	</g>
	<path id="Layer" class="s2" d="m217.5 257.4l-26.3 179.2h-33l4.4-102.3 2.3-53.8-6.7-25.6c0 0-3.1-5.7-5.7-12.6-2.9-7.8-5.2-17.1-1.8-21.5 1.3-1.7 4.6-2.9 9-3.8 2.7-0.5 5.8-1 9.2-1.3 19.6-1.9 47.4-0.7 47.4-0.7l0.7 23.3 0.4 13c0 0 0.1 6.1 0.1 6.1z"/>
	<g id="Layer">
		<path id="Layer" class="s0" d="m130.8 462l10.7-73 27.9 4.1-19.7 71.6-18.9-2.7z"/>
		<path id="Layer" class="s2" d="m195.7 471.1c0.4 1 0.2 4.3 0.1 5.4-0.5 3.6-3.8 6-7.4 5.5l-58.5-8.6c-2.5-0.4-4.1-2.6-3.8-5l0.4-2.5c0 0-1.8-7.7 5.4-15.9 0 0 6.4 8.2 19.1-1.2l4.2-5.5 21.1 20.8 12.8 3.5c2.8 0.8 5.5 0.8 6.6 3.5q0 0 0 0z"/>
	</g>
	<path id="Layer" class="s2" d="m218 227.5l-3.6 31.1-19.7 65.6-32.5 107.9-32.7-4.8 29.4-153.5-2.9-26.3c0 0-1-2.6-2.1-6.4-2.1-7.6-4.8-19.9-1.8-26.2q0.6-1.3 1.5-2.2c1.1-1.2 3.5-1.9 6.7-2.2 13.3-1.5 40.7 2.8 52.9 4.9 0 0 4.8 12.1 4.8 12.1z"/>
	<path id="Layer" class="s1" d="m192.8 80l35.9 45.2-6.5 47.2-5.5 48.1-65-9.9c0 0 14-33.9 15.6-35.4 1.5-1.6 5.5 2.3 2.7-2.8-2.7-5-5.8-5-3.2-7.6 2.6-2.6-20.3-36.4-20.3-54.7 0-18.2 10.9-32.7 10.9-32.7 0 0 35.4 2.6 35.4 2.6z"/>
	<path id="Layer" class="s0" d="m184.4 63.6c-13.4 0-24.2-10.8-24.2-24.2 0-13.4 10.8-24.2 24.2-24.2 13.4 0 24.2 10.8 24.2 24.2 0 13.4-10.8 24.2-24.2 24.2z"/>
	<path id="Layer" class="s2" d="m179.4 96.9c-3.2 6-31-3.2-43.5-7.1-12.5-3.8 14.7-38.7 12.8-46.4-1.9-7.7 9-10 9-10 0 0-8.4 3.2-19.6-0.9-11.2-4.2-5.1-9.3 5.5-21.8 10.5-12.5 11.5 4.5 11.5 4.5 0 0 7.4-13.5 24-15.1 16.7-1.6 17.6 11.9 17.6 11.9 0 0 9 1.6 13.8 11.8 4.8 10.3-2.2 10.3-2.2 10.3l-8.4-6.7c0 0-11.7 13-12.4 21.3-0.6 8.3-4.2 36.9-4.2 36.9 0 0-0.7 5.2-3.9 11.3z"/>
	<path id="Layer" class="s0" d="m263.7 252.2c-2.6-3.2-4.3-6.7-5-9.9l-5.9-6.3-43.5-44.5-42.3-80.2 7-8.4c0 0 8.8-3.2 16.3 3.1 7.4 6.2 32.4 63.6 32.4 63.6l45.3 57.8 3.6 4.2c3 1.2 6.2 3.6 8.8 6.7 6 7.3 7.2 16.3 2.6 20.1-4.6 3.8-13.3 1.1-19.3-6.2z"/>
	<path id="Layer" class="s1" d="m206 98.6c0 0-3.8 22.8 0.2 26.1 4.1 3.3 2.2 0.9 2.2 0.9 0 0-1 10 3.1 14.6 4.1 4.6 1.9 4.7 1.9 4.7l-25.2 19.7c-12.7-8.5-23.8-66.2-23.8-66.2 0 0 41.6 0.2 41.6 0.2z"/>
</svg>